<?xml version="1.0" encoding="UTF-8"?>
<svg id="Layer_2" data-name="Layer 2" xmlns="http://www.w3.org/2000/svg" viewBox="0 0 158.557434 158.907586">
  <defs>
    <style>
      .cls-1 {
        fill: #333;
      }

      .cls-1, .cls-2 {
        stroke-width: 0px;
      }

      .cls-2 {
        fill: orange;
      }
    </style>
  </defs>
  <g id="Layer_1-2" data-name="Layer 1">
    <g>
      <path class="cls-1" d="m104.839172,4.586114c1.66394,3.547607,2.528015,7.424805,2.528015,11.519836,0,6.236816-1.973877,11.848633-5.745483,16.461914,17.580505,8.380432,29.761414,26.322876,29.761414,47.060974,0,28.730469-23.373901,52.10437-52.10437,52.10437s-52.10437-23.373901-52.10437-52.10437c0-20.763916,12.211914-38.72406,29.827881-47.091064-3.568237-4.613586-5.438599-10.222595-5.438599-16.431824,0-4.123352.829773-8.03772,2.436523-11.615173C22.615723,15.04638,0,44.686761,0,79.628839c0,43.784485,35.494385,79.278748,79.278748,79.278748s79.278687-35.494263,79.278687-79.278748c0-34.837402-22.480408-64.404724-53.718262-75.042725Z"/>
      <path class="cls-2" d="m63.215735,16.105956c0-4.408503,1.482966-8.196709,4.457859-11.360493,2.970199-3.163642,6.758832-4.745463,11.360493-4.745463s8.529117,1.581821,11.791756,4.745463c3.258088,3.163784,4.889265,6.95199,4.889265,11.360493,0,4.412912-1.631177,8.052907-4.889265,10.928945-3.262639,2.876038-7.190095,4.314057-11.791756,4.314057s-8.390294-1.438019-11.360493-4.314057c-2.974893-2.876038-4.457859-6.516033-4.457859-10.928945Z"/>
      <rect class="cls-1" x="69.359631" y="43.130046" width="20.211581" height="89.431825"/>
    </g>
  </g>
</svg>